# xmcd
# 
# Track frame offsets:
#     150
#     13275
#     36150
#     47550
#     63675
#     77325
#     93225
#     109500
#     126235
#     142885
#     158221
#     171346
#     191146
# 
# Disc length: 2704
# 
# Revision: 2
# Processed by: cddbd v1.5.2PL0 Copyright (c) Steve Scherf et al.
# Submitted via: fre:ac v1.0.31
# 
DISCID=ab0a8e0d
DTITLE=Angeles Azules - Como Te Voy A Olvidar
DYEAR=2013
DGENRE=Cumbia
TTITLE0=Entrega De Amor (Con Saul Hernandez)
TTITLE1=Como Te Voy A Olvidar (Con Kinky)
TTITLE2=Las Maravillas de La Vida (Con Carla Morrison)
TTITLE3=El Liston De Tu Pelo (Con Lila Downs)
TTITLE4=17 Años (Con Jay De La Cueva)
TTITLE5=Cumbia Pa' Gozar (Con IMS y ToySelectah)
TTITLE6=Mis Sentimientos (Con Ximena Sariñana)
TTITLE7=Ay Amor (Con Los amigos Invisibles, Jiggy Drama y El Gavachillo-Ozomatli)
TTITLE8=Juventud (Con Vicentico)
TTITLE9=Cumbia Del Infinito (Con Centavrvs)
TTITLE10=El Pecado (Con El Canijo)
TTITLE11=Cumbia Del Acordeón (Con Celso Piña)
TTITLE12=Mi Unico Amor (Con Li Saumet-Bomba Estereo)
EXTD=
EXTT0=
EXTT1=
EXTT2=
EXTT3=
EXTT4=
EXTT5=
EXTT6=
EXTT7=
EXTT8=
EXTT9=
EXTT10=
EXTT11=
EXTT12=
PLAYORDER=
